# xmcd
#
# Track frame offsets:
#	150
#	14893
#	30880
#	43519
#	63681
#	85131
#	99835
#	119369
#	129248
#	138543
#	153947
#	163812
#	182762
#	196563
#	208035
#	229620
#	244099
#
# Disc length: 3469 seconds
#
# Revision: 0
# Processed by: cddbd v1.5PL3 Copyright (c) Steve Scherf et al.
# Submitted via: audiograbber 1.83.01
#
DISCID=db0d8b11
DTITLE=Various Artist - Various
DYEAR=1900
DGENRE=
TTITLE0=all my ex's live in texas
TTITLE1=always on my mind
TTITLE2=amarillo by Morning
TTITLE3=Angel Flying too Close To TheGrounds
TTITLE4=City of New Orleans
TTITLE5=Dueling Banjos
TTITLE6=Georgia On My Mind
TTITLE7=If you Got The Money
TTITLE8=Whiskey River
TTITLE9=Louisiana Saturday Night
TTITLE10=Mountain Music
TTITLE11=My Heros  Have Always Been Cowboys
TTITLE12=On The Road  Again
TTITLE13=Take Me Homr Country Road
TTITLE14=Pancho And Lefty
TTITLE15=Whisky River
TTITLE16=E
EXTD=
EXTT0=
EXTT1=
EXTT2=
EXTT3=
EXTT4=
EXTT5=
EXTT6=
EXTT7=
EXTT8=
EXTT9=
EXTT10=
EXTT11=
EXTT12=
EXTT13=
EXTT14=
EXTT15=
EXTT16=
PLAYORDER=
